<?xml version="1.0" encoding="utf-8"?>
<!-- Generator: Adobe Illustrator 25.2.0, SVG Export Plug-In . SVG Version: 6.00 Build 0)  -->
<svg version="1.1" id="Layer_1" xmlns="http://www.w3.org/2000/svg" xmlns:xlink="http://www.w3.org/1999/xlink" x="0px" y="0px"
	 viewBox="0 0 460 150" style="enable-background:new 0 0 460 150;" xml:space="preserve">
<style type="text/css">
	.st0{fill:#00557F;}
	.st1{fill:#F37121;}
</style>
<g>
	<g>
		<polygon points="51.2,126.4 50.1,124.8 52.2,125.4 		"/>
	</g>
	<g>
		<polygon points="51.6,126.4 50.3,125.7 52.8,123.9 		"/>
	</g>
	<g>
		<path d="M56.5,28c-0.5-0.7-0.9-1.5-1.3-2.2l0.9-0.5l1.2,2.2L56.5,28z"/>
	</g>
	<g>
		<path d="M94.3,93.4c-0.8-1-1.5-2.2-2-3.4l0.9-0.4l1.9,3.3L94.3,93.4z"/>
	</g>
	<g>
		<path class="st0" d="M115.3,93.9l-10.1,17.4l-13.7,23.8c-1.5,2.6-3.7,4.8-6.3,6.3l0,0c-5.9,3.4-13.5,1.4-16.9-4.5L66,133L6.5,29.8
			l-1.3-2.2c-4.1-7.1-1.7-16.2,5.4-20.3l0,0c0.7-0.4,1.5-0.6,2.3-0.6h52.5c-6.3,1.2-11,6.7-11,13.3c0,2,0.4,3.9,1.2,5.7
			c0.3,0.8,0.8,1.5,1.2,2.2c0,0,0,0,0,0l1.2,2l33.7,58.4l0.9,1.6c0,0,0,0,0,0c0.5,1.2,1.1,2.3,1.9,3.3c0,0,0,0,0,0
			c2.5,3.1,6.3,5.2,10.6,5.2C109.2,98.3,112.8,96.6,115.3,93.9z"/>
	</g>
	<g>
		<path class="st1" d="M129.2,6.9h15.6c9,0,14.7,9.8,10.2,17.6l-7.8,13.5l-7.8,13.5c-4.5,7.8-15.8,7.8-20.4,0l-7.8-13.5l-7.8-13.5
			c-4.5-7.8,1.1-17.6,10.2-17.6H129.2z"/>
	</g>
	<g>
		<path class="st0" d="M223.2,70.8l-15.3-26.5h6.6l11.1,19.2l11.1-19.2h6.6L228,70.8H223.2z"/>
		<path class="st0" d="M259.7,70.8V44.3h24.4v5.7h-18.7v4.6h15v5.7h-15V65h18.7v5.7H259.7z"/>
		<path class="st0" d="M307.2,70.8c-1,0-1.9-0.2-2.7-0.7c-0.8-0.5-1.5-1.2-2-2c-0.5-0.8-0.7-1.7-0.7-2.7v-2.5h5.7V65h15v-4.6h-15.2
			c-1,0-1.9-0.2-2.7-0.7c-0.8-0.5-1.5-1.1-2-2c-0.5-0.8-0.7-1.7-0.7-2.7v-5.2c0-1,0.2-1.9,0.7-2.7s1.2-1.5,2-2
			c0.8-0.5,1.7-0.7,2.7-0.7h15.6c1,0,1.9,0.2,2.7,0.7c0.8,0.5,1.5,1.1,2,2s0.8,1.7,0.8,2.7v2.5h-5.8v-2.2h-15v4.6h15.3
			c1,0,1.9,0.2,2.7,0.7c0.8,0.5,1.5,1.1,2,2s0.8,1.7,0.8,2.7v5.2c0,1-0.3,1.9-0.8,2.7c-0.5,0.8-1.2,1.5-2,2
			c-0.8,0.5-1.7,0.7-2.7,0.7H307.2z"/>
		<path class="st0" d="M351.8,70.8c-1,0-1.9-0.2-2.7-0.7c-0.8-0.5-1.5-1.2-2-2c-0.5-0.8-0.7-1.7-0.7-2.7V49.8c0-1,0.2-1.9,0.7-2.7
			s1.2-1.5,2-2c0.8-0.5,1.7-0.7,2.7-0.7h15.6c1,0,1.9,0.2,2.7,0.7c0.8,0.5,1.5,1.1,2,2s0.8,1.7,0.8,2.7v15.6c0,1-0.3,1.9-0.8,2.7
			c-0.5,0.8-1.2,1.5-2,2c-0.8,0.5-1.7,0.7-2.7,0.7H351.8z M367,65v-15h-15v15H367z"/>
		<path class="st0" d="M400,70.8V50.1h-10.4v-5.7h26.5v5.7h-10.4v20.7H400z"/>
		<path class="st0" d="M433,70.8V44.3h24.4v5.7h-18.7v4.6h15v5.7h-15V65h18.7v5.7H433z"/>
	</g>
	<g>
		<path class="st0" d="M182.3,147.3h-0.6c-1.1,0-2-0.9-2-2V8.6c0-1.1,0.9-2,2-2h0.6c1.1,0,2,0.9,2,2v136.7
			C184.3,146.4,183.4,147.3,182.3,147.3z"/>
	</g>
	<g>
		<path class="st0" d="M218.4,95.4l-3-8.4h1.9l1.8,5l1.8-5h1.7l1.8,5l1.8-5h1.9l-3,8.4h-1.4l-2-5.4l-2,5.4H218.4z"/>
		<path class="st0" d="M233.6,95.4c-0.3,0-0.6-0.1-0.9-0.2c-0.3-0.2-0.5-0.4-0.6-0.6c-0.2-0.3-0.2-0.5-0.2-0.9v-4.9
			c0-0.3,0.1-0.6,0.2-0.9c0.2-0.3,0.4-0.5,0.6-0.6c0.3-0.2,0.5-0.2,0.9-0.2h4.9c0.3,0,0.6,0.1,0.9,0.2c0.3,0.2,0.5,0.4,0.6,0.6
			s0.2,0.5,0.2,0.9v4.9c0,0.3-0.1,0.6-0.2,0.9s-0.4,0.5-0.6,0.6c-0.3,0.2-0.5,0.2-0.9,0.2H233.6z M238.4,93.6v-4.7h-4.7v4.7H238.4z"
			/>
		<path class="st0" d="M244.6,95.4V87h6.6c0.3,0,0.6,0.1,0.9,0.2c0.3,0.2,0.5,0.4,0.6,0.6c0.2,0.3,0.2,0.5,0.2,0.9v2.2
			c0,0.3-0.1,0.6-0.2,0.9c-0.2,0.3-0.4,0.5-0.6,0.6c-0.3,0.2-0.5,0.2-0.9,0.2l-4.8,0v2.7H244.6z M251.1,90.8v-2h-4.7v2H251.1z
			 M251.1,95.4l-2.4-2.9h2.4l1.9,2.3v0.6H251.1z"/>
		<path class="st0" d="M257.2,95.4V87h1.8v6.6h6.6v1.8H257.2z"/>
		<path class="st0" d="M269.4,95.4V87h6.6c0.3,0,0.6,0.1,0.9,0.2c0.3,0.2,0.5,0.4,0.6,0.6c0.2,0.3,0.2,0.5,0.2,0.9v4.9
			c0,0.3-0.1,0.6-0.2,0.9c-0.2,0.3-0.4,0.5-0.6,0.6c-0.3,0.2-0.5,0.2-0.9,0.2H269.4z M275.9,93.6v-4.7h-4.7v4.7H275.9z"/>
		<path class="st0" d="M290.7,95.4c-0.3,0-0.6-0.1-0.9-0.2c-0.3-0.2-0.5-0.4-0.6-0.6c-0.2-0.3-0.2-0.5-0.2-0.9v-4.9
			c0-0.3,0.1-0.6,0.2-0.9c0.2-0.3,0.4-0.5,0.6-0.6c0.3-0.2,0.5-0.2,0.9-0.2h4.9c0.3,0,0.6,0.1,0.9,0.2c0.3,0.2,0.5,0.4,0.6,0.6
			s0.2,0.5,0.2,0.9v4.9c0,0.3-0.1,0.6-0.2,0.9s-0.4,0.5-0.6,0.6c-0.3,0.2-0.5,0.2-0.9,0.2H290.7z M295.5,93.6v-4.7h-4.7v4.7H295.5z"
			/>
		<path class="st0" d="M301.7,95.4V87h7.7v1.8h-5.9v1.5h4.7v1.8h-4.7v3.3H301.7z"/>
		<path class="st0" d="M322.8,95.4v-6.5h-3.3V87h8.4v1.8h-3.3v6.5H322.8z"/>
		<path class="st0" d="M331.9,95.4V87h7.7v1.8h-5.9v1.5h4.7v1.8h-4.7v1.5h5.9v1.8H331.9z"/>
		<path class="st0" d="M345.6,95.4c-0.3,0-0.6-0.1-0.9-0.2c-0.3-0.2-0.5-0.4-0.6-0.6c-0.2-0.3-0.2-0.5-0.2-0.9v-4.9
			c0-0.3,0.1-0.6,0.2-0.9c0.2-0.3,0.4-0.5,0.6-0.6c0.3-0.2,0.5-0.2,0.9-0.2h6.6v1.8H346c-0.1,0-0.2,0-0.3,0.1
			c-0.1,0.1-0.1,0.2-0.1,0.3v4c0,0.1,0,0.2,0.1,0.3c0.1,0.1,0.2,0.1,0.3,0.1h6.1v1.8H345.6z"/>
		<path class="st0" d="M356.5,95.4V87h1.8v3.3h4.9V87h1.8v8.4h-1.8v-3.3h-4.9v3.3H356.5z"/>
		<path class="st0" d="M369.5,95.4V87h1.9l4.7,5.6V87h1.8v8.4H376l-4.7-5.6v5.6H369.5z"/>
		<path class="st0" d="M383.9,95.4c-0.3,0-0.6-0.1-0.9-0.2c-0.3-0.2-0.5-0.4-0.6-0.6c-0.2-0.3-0.2-0.5-0.2-0.9v-4.9
			c0-0.3,0.1-0.6,0.2-0.9c0.2-0.3,0.4-0.5,0.6-0.6c0.3-0.2,0.5-0.2,0.9-0.2h4.9c0.3,0,0.6,0.1,0.9,0.2c0.3,0.2,0.5,0.4,0.6,0.6
			s0.2,0.5,0.2,0.9v4.9c0,0.3-0.1,0.6-0.2,0.9s-0.4,0.5-0.6,0.6c-0.3,0.2-0.5,0.2-0.9,0.2H383.9z M388.7,93.6v-4.7H384v4.7H388.7z"
			/>
		<path class="st0" d="M394.9,95.4V87h1.8v6.6h6.6v1.8H394.9z"/>
		<path class="st0" d="M408.7,95.4c-0.3,0-0.6-0.1-0.9-0.2c-0.3-0.2-0.5-0.4-0.6-0.6c-0.2-0.3-0.2-0.5-0.2-0.9v-4.9
			c0-0.3,0.1-0.6,0.2-0.9c0.2-0.3,0.4-0.5,0.6-0.6c0.3-0.2,0.5-0.2,0.9-0.2h4.9c0.3,0,0.6,0.1,0.9,0.2c0.3,0.2,0.5,0.4,0.6,0.6
			s0.2,0.5,0.2,0.9v4.9c0,0.3-0.1,0.6-0.2,0.9s-0.4,0.5-0.6,0.6c-0.3,0.2-0.5,0.2-0.9,0.2H408.7z M413.5,93.6v-4.7h-4.7v4.7H413.5z"
			/>
		<path class="st0" d="M421.5,95.4c-0.3,0-0.6-0.1-0.9-0.2c-0.3-0.2-0.5-0.4-0.6-0.6c-0.2-0.3-0.2-0.5-0.2-0.9v-4.9
			c0-0.3,0.1-0.6,0.2-0.9c0.2-0.3,0.4-0.5,0.6-0.6c0.3-0.2,0.5-0.2,0.9-0.2h4.9c0.3,0,0.6,0.1,0.9,0.2c0.3,0.2,0.5,0.4,0.6,0.6
			c0.2,0.3,0.2,0.5,0.2,0.9v0.8h-1.8v-0.7h-4.7v4.7h4.7v-1.3h-1.8v-1.8h3.6v3.2c0,0.3-0.1,0.6-0.2,0.9c-0.2,0.3-0.4,0.5-0.6,0.6
			c-0.3,0.2-0.5,0.2-0.9,0.2H421.5z"/>
		<path class="st0" d="M432.2,95.4V87h1.8v8.4H432.2z"/>
		<path class="st0" d="M438.1,95.4V87h7.7v1.8h-5.9v1.5h4.7v1.8h-4.7v1.5h5.9v1.8H438.1z"/>
		<path class="st0" d="M451.7,95.4c-0.3,0-0.6-0.1-0.9-0.2c-0.3-0.2-0.5-0.4-0.6-0.6c-0.2-0.3-0.2-0.5-0.2-0.9v-0.8h1.8v0.7h4.7
			v-1.5h-4.8c-0.3,0-0.6-0.1-0.9-0.2c-0.3-0.2-0.5-0.4-0.6-0.6c-0.2-0.3-0.2-0.5-0.2-0.9v-1.6c0-0.3,0.1-0.6,0.2-0.9
			c0.2-0.3,0.4-0.5,0.6-0.6c0.3-0.2,0.5-0.2,0.9-0.2h4.9c0.3,0,0.6,0.1,0.9,0.2c0.3,0.2,0.5,0.4,0.6,0.6s0.2,0.5,0.2,0.9v0.8h-1.8
			v-0.7h-4.7v1.5h4.8c0.3,0,0.6,0.1,0.9,0.2c0.3,0.2,0.5,0.4,0.6,0.6s0.2,0.5,0.2,0.9v1.6c0,0.3-0.1,0.6-0.2,0.9s-0.4,0.5-0.6,0.6
			c-0.3,0.2-0.5,0.2-0.9,0.2H451.7z"/>
	</g>
</g>
</svg>
